<?xml version="1.0" standalone="no"?>
<!DOCTYPE svg PUBLIC "-//W3C//DTD SVG 20010904//EN"
 "http://www.w3.org/TR/2001/REC-SVG-20010904/DTD/svg10.dtd">
<svg version="1.0" xmlns="http://www.w3.org/2000/svg"
 width="512.000000pt" height="512.000000pt" viewBox="0 0 512.000000 512.000000"
 preserveAspectRatio="xMidYMid meet">

<g transform="translate(0.000000,512.000000) scale(0.100000,-0.100000)"
fill="#000000" stroke="none">
<path d="M478 4463 c-53 -33 -65 -112 -24 -160 22 -25 32 -28 113 -34 130 -9
187 -31 254 -98 33 -34 62 -74 72 -101 9 -25 87 -466 172 -980 86 -514 161
-955 167 -980 42 -179 200 -337 383 -385 52 -13 220 -15 1321 -15 1249 0 1262
0 1287 20 38 30 52 80 33 123 -29 72 62 67 -1316 67 -1206 0 -1242 1 -1296 20
-69 24 -136 77 -170 135 -23 40 -64 199 -64 253 l0 22 1394 0 c1370 0 1394 0
1418 20 14 10 30 32 36 47 30 75 432 1507 432 1539 0 26 -8 43 -29 65 l-29 29
-1754 0 -1753 0 -23 67 c-61 175 -206 306 -384 348 -86 20 -205 19 -240 -2z
m3962 -633 c0 -9 -276 -981 -341 -1202 l-20 -68 -1354 0 -1353 0 -6 28 c-9 45
-206 1231 -206 1242 0 7 521 10 1640 10 1109 0 1640 -3 1640 -10z"/>
<path d="M1570 1470 c-165 -61 -273 -200 -287 -371 -21 -254 202 -477 456
-456 133 11 252 81 322 190 55 85 72 150 67 256 -7 159 -92 287 -236 358 -68
34 -83 38 -171 40 -77 3 -107 -1 -151 -17z m204 -202 c81 -25 146 -118 146
-210 0 -51 -46 -135 -91 -165 -92 -61 -192 -51 -269 27 -106 105 -81 268 51
334 58 29 101 32 163 14z"/>
<path d="M3490 1470 c-165 -61 -273 -200 -287 -371 -21 -254 202 -477 456
-456 133 11 252 81 322 190 55 85 72 150 67 256 -7 159 -92 287 -236 358 -68
34 -83 38 -171 40 -77 3 -107 -1 -151 -17z m204 -202 c81 -25 146 -118 146
-210 0 -51 -46 -135 -91 -165 -92 -61 -192 -51 -269 27 -106 105 -81 268 51
334 58 29 101 32 163 14z"/>
</g>
</svg>
